<?xml version="1.0" encoding="UTF-8"?>
<!DOCTYPE svg PUBLIC "-//W3C//DTD SVG 1.1//EN" "http://www.w3.org/Graphics/SVG/1.1/DTD/svg11.dtd">
<svg xmlns="http://www.w3.org/2000/svg" version="1.1" width="462px" height="435px" style="shape-rendering:geometricPrecision; text-rendering:geometricPrecision; image-rendering:optimizeQuality; fill-rule:evenodd; clip-rule:evenodd" xmlns:xlink="http://www.w3.org/1999/xlink">
<g><path style="opacity:0.251" fill="#cecac8" d="M 212.5,200.5 C 228.325,199.504 244.325,199.17 260.5,199.5C 260.806,202.385 260.473,205.052 259.5,207.5C 259.5,205.167 259.5,202.833 259.5,200.5C 251.5,200.5 243.5,200.5 235.5,200.5C 235.5,202.833 235.5,205.167 235.5,207.5C 234.833,207.5 234.167,207.5 233.5,207.5C 233.5,205.167 233.5,202.833 233.5,200.5C 226.5,200.5 219.5,200.5 212.5,200.5 Z"/></g>
<g><path style="opacity:0.997" fill="#626161" d="M 174.5,199.5 C 194.607,199.108 201.441,208.441 195,227.5C 187.432,236.242 178.598,237.742 168.5,232C 160.625,224.466 159.458,215.966 165,206.5C 167.79,203.535 170.957,201.202 174.5,199.5 Z M 175.5,207.5 C 185.988,206.487 190.488,211.154 189,221.5C 186.367,226.732 182.201,228.565 176.5,227C 167.55,221.007 167.217,214.507 175.5,207.5 Z"/></g>
<g><path style="opacity:0.998" fill="#c69a27" d="M 294.5,217.5 C 299.833,217.5 305.167,217.5 310.5,217.5C 310.5,218.5 310.5,219.5 310.5,220.5C 310.613,223.049 309.946,225.382 308.5,227.5C 300.747,236.234 291.747,237.734 281.5,232C 273.66,224.435 272.493,215.935 278,206.5C 287.691,197.376 297.524,197.209 307.5,206C 308.627,207.753 309.627,209.587 310.5,211.5C 305.827,213.378 301.827,212.545 298.5,209C 289.783,205.562 284.449,208.395 282.5,217.5C 284.776,227.599 290.442,230.099 299.5,225C 297.866,224.506 296.199,224.34 294.5,224.5C 294.5,222.167 294.5,219.833 294.5,217.5 Z"/></g>
<g><path style="opacity:0.998" fill="#c69b2a" d="M 326.5,199.5 C 345.968,199.784 352.635,209.117 346.5,227.5C 338.791,236.231 329.791,237.731 319.5,232C 310.237,222.316 310.237,212.649 319.5,203C 321.925,201.787 324.259,200.621 326.5,199.5 Z M 326.5,207.5 C 337.666,206.822 342.166,211.822 340,222.5C 336.1,227.533 331.267,228.7 325.5,226C 318.828,219.5 319.161,213.334 326.5,207.5 Z"/></g>
<g><path style="opacity:0.998" fill="#5e5e5d" d="M 63.5,199.5 C 69.2617,199.149 74.9284,199.649 80.5,201C 88.1199,207.328 88.4532,213.995 81.5,221C 77.9743,222.337 74.3076,222.837 70.5,222.5C 70.5,226.833 70.5,231.167 70.5,235.5C 68.1667,235.5 65.8333,235.5 63.5,235.5C 63.5,223.5 63.5,211.5 63.5,199.5 Z M 70.5,207.5 C 72.924,207.192 75.2573,207.526 77.5,208.5C 79.0348,214.301 76.7014,216.635 70.5,215.5C 70.5,212.833 70.5,210.167 70.5,207.5 Z"/></g>
<g><path style="opacity:0.999" fill="#5e5e5e" d="M 106.5,213.5 C 106.5,215.5 106.5,217.5 106.5,219.5C 102.629,219.185 98.9619,219.518 95.5,220.5C 95.5,222.833 95.5,225.167 95.5,227.5C 100.167,227.5 104.833,227.5 109.5,227.5C 109.5,230.167 109.5,232.833 109.5,235.5C 102.5,235.5 95.5,235.5 88.5,235.5C 88.5,223.5 88.5,211.5 88.5,199.5C 95.5,199.5 102.5,199.5 109.5,199.5C 109.5,202.167 109.5,204.833 109.5,207.5C 104.833,207.5 100.167,207.5 95.5,207.5C 95.5,209.5 95.5,211.5 95.5,213.5C 99.1667,213.5 102.833,213.5 106.5,213.5 Z"/></g>
<g><path style="opacity:0.999" fill="#5f5e5e" d="M 127.5,207.5 C 126.507,216.318 126.173,225.318 126.5,234.5C 124.167,234.5 121.833,234.5 119.5,234.5C 119.5,225.5 119.5,216.5 119.5,207.5C 116.5,207.5 113.5,207.5 110.5,207.5C 110.5,204.833 110.5,202.167 110.5,199.5C 118.833,199.5 127.167,199.5 135.5,199.5C 135.5,202.167 135.5,204.833 135.5,207.5C 132.833,207.5 130.167,207.5 127.5,207.5 Z"/></g>
<g><path style="opacity:0.997" fill="#605f5f" d="M 159.5,233.5 C 157.052,234.473 154.385,234.806 151.5,234.5C 149.867,230.233 147.867,226.233 145.5,222.5C 144.517,226.298 144.183,230.298 144.5,234.5C 142.167,234.5 139.833,234.5 137.5,234.5C 137.5,229.5 137.5,224.5 137.5,219.5C 137.13,212.905 137.13,206.238 137.5,199.5C 144.061,198.919 150.395,199.752 156.5,202C 162.608,209.818 161.608,216.485 153.5,222C 156.164,225.498 158.164,229.332 159.5,233.5 Z M 145.5,207.5 C 152.145,206.977 153.811,209.477 150.5,215C 148.866,215.494 147.199,215.66 145.5,215.5C 145.5,212.833 145.5,210.167 145.5,207.5 Z"/></g>
<g><path style="opacity:0.999" fill="#585858" d="M 202.5,200.5 C 204.833,200.5 207.167,200.5 209.5,200.5C 209.5,209.167 209.5,217.833 209.5,226.5C 209.391,230.606 207.391,233.273 203.5,234.5C 201.833,234.5 200.167,234.5 198.5,234.5C 198.5,232.167 198.5,229.833 198.5,227.5C 200.017,227.489 201.184,226.823 202,225.5C 202.5,217.173 202.666,208.84 202.5,200.5 Z"/></g>
<g><path style="opacity:0.999" fill="#525252" d="M 219.5,207.5 C 219.5,209.5 219.5,211.5 219.5,213.5C 223.5,213.5 227.5,213.5 231.5,213.5C 231.5,215.5 231.5,217.5 231.5,219.5C 227.298,219.183 223.298,219.517 219.5,220.5C 219.5,222.833 219.5,225.167 219.5,227.5C 223.634,228.485 227.968,228.818 232.5,228.5C 232.5,230.167 232.5,231.833 232.5,233.5C 226.167,233.5 219.833,233.5 213.5,233.5C 213.5,222.833 213.5,212.167 213.5,201.5C 219.833,201.5 226.167,201.5 232.5,201.5C 232.5,203.167 232.5,204.833 232.5,206.5C 227.968,206.182 223.634,206.515 219.5,207.5 Z"/></g>
<g><path style="opacity:0.999" fill="#565555" d="M 259.5,207.5 C 256.833,207.5 254.167,207.5 251.5,207.5C 250.507,216.318 250.173,225.318 250.5,234.5C 248.5,234.5 246.5,234.5 244.5,234.5C 244.827,225.318 244.493,216.318 243.5,207.5C 240.833,207.5 238.167,207.5 235.5,207.5C 235.5,205.167 235.5,202.833 235.5,200.5C 243.5,200.5 251.5,200.5 259.5,200.5C 259.5,202.833 259.5,205.167 259.5,207.5 Z"/></g>
<g><path style="opacity:1" fill="#c09209" d="M 358.5,203.5 C 358.5,211.5 358.5,219.5 358.5,227.5C 362.833,227.5 367.167,227.5 371.5,227.5C 371.5,229.833 371.5,232.167 371.5,234.5C 364.833,234.5 358.167,234.5 351.5,234.5C 351.5,223.167 351.5,211.833 351.5,200.5C 353.833,200.5 356.167,200.5 358.5,200.5C 358.5,201.5 358.5,202.5 358.5,203.5 Z"/></g>
<g><path style="opacity:0.998" fill="#c4971e" d="M 388.5,200.5 C 397.553,202.553 402.22,208.22 402.5,217.5C 402.096,227.237 397.096,232.903 387.5,234.5C 383.167,234.5 378.833,234.5 374.5,234.5C 374.5,223.167 374.5,211.833 374.5,200.5C 379.167,200.5 383.833,200.5 388.5,200.5 Z M 381.5,207.5 C 388.555,207.066 392.888,210.233 394.5,217C 393.308,224.357 388.974,227.857 381.5,227.5C 381.5,220.833 381.5,214.167 381.5,207.5 Z"/></g>
<g><path style="opacity:0.149" fill="#eee2c7" d="M 358.5,203.5 C 358.5,202.5 358.5,201.5 358.5,200.5C 356.167,200.5 353.833,200.5 351.5,200.5C 351.5,211.833 351.5,223.167 351.5,234.5C 358.167,234.5 364.833,234.5 371.5,234.5C 364.687,235.491 357.687,235.825 350.5,235.5C 350.5,223.5 350.5,211.5 350.5,199.5C 353.5,199.5 356.5,199.5 359.5,199.5C 359.768,201.099 359.434,202.432 358.5,203.5 Z"/></g>
<g><path style="opacity:0.573" fill="#7c7b7b" d="M 212.5,200.5 C 219.5,200.5 226.5,200.5 233.5,200.5C 233.5,202.833 233.5,205.167 233.5,207.5C 228.833,207.5 224.167,207.5 219.5,207.5C 223.634,206.515 227.968,206.182 232.5,206.5C 232.5,204.833 232.5,203.167 232.5,201.5C 226.167,201.5 219.833,201.5 213.5,201.5C 213.5,212.167 213.5,222.833 213.5,233.5C 219.833,233.5 226.167,233.5 232.5,233.5C 232.5,231.833 232.5,230.167 232.5,228.5C 227.968,228.818 223.634,228.485 219.5,227.5C 224.5,227.5 229.5,227.5 234.5,227.5C 234.768,230.119 234.435,232.619 233.5,235C 226.508,235.5 219.508,235.666 212.5,235.5C 212.5,223.833 212.5,212.167 212.5,200.5 Z"/></g>
<g><path style="opacity:0.161" fill="#cac8c4" d="M 202.5,200.5 C 204.948,199.527 207.615,199.194 210.5,199.5C 210.827,208.682 210.493,217.682 209.5,226.5C 209.5,217.833 209.5,209.167 209.5,200.5C 207.167,200.5 204.833,200.5 202.5,200.5 Z"/></g>
<g><path style="opacity:0.803" fill="#a1a09f" d="M 243.5,207.5 C 244.493,216.318 244.827,225.318 244.5,234.5C 246.5,234.5 248.5,234.5 250.5,234.5C 250.173,225.318 250.507,216.318 251.5,207.5C 251.5,216.833 251.5,226.167 251.5,235.5C 248.833,235.5 246.167,235.5 243.5,235.5C 243.5,226.167 243.5,216.833 243.5,207.5 Z"/></g>
<g><path style="opacity:0.909" fill="#dbc279" d="M 388.5,200.5 C 383.833,200.5 379.167,200.5 374.5,200.5C 374.5,211.833 374.5,223.167 374.5,234.5C 373.833,234.5 373.5,234.167 373.5,233.5C 373.5,222.167 373.5,210.833 373.5,199.5C 378.695,199.179 383.695,199.513 388.5,200.5 Z"/></g>
<g><path style="opacity:0.485" fill="#e4d9ba" d="M 294.5,217.5 C 299.975,216.511 305.642,216.178 311.5,216.5C 311.768,218.099 311.434,219.432 310.5,220.5C 310.5,219.5 310.5,218.5 310.5,217.5C 305.167,217.5 299.833,217.5 294.5,217.5 Z"/></g>
<g><path style="opacity:0.91" fill="#939292" d="M 106.5,213.5 C 107.695,213.866 108.361,214.699 108.5,216C 107.852,217.44 107.519,218.94 107.5,220.5C 103.5,220.5 99.5,220.5 95.5,220.5C 98.9619,219.518 102.629,219.185 106.5,219.5C 106.5,217.5 106.5,215.5 106.5,213.5 Z"/></g>
<g><path style="opacity:0.932" fill="#a6a5a4" d="M 231.5,213.5 C 232.468,215.607 232.802,217.941 232.5,220.5C 228.167,220.5 223.833,220.5 219.5,220.5C 223.298,219.517 227.298,219.183 231.5,219.5C 231.5,217.5 231.5,215.5 231.5,213.5 Z"/></g>
<g><path style="opacity:0.125" fill="#cac9c3" d="M 127.5,207.5 C 127.5,216.833 127.5,226.167 127.5,235.5C 124.615,235.806 121.948,235.473 119.5,234.5C 121.833,234.5 124.167,234.5 126.5,234.5C 126.173,225.318 126.507,216.318 127.5,207.5 Z"/></g>
<g><path style="opacity:0.273" fill="#c8c7c7" d="M 198.5,227.5 C 198.5,229.833 198.5,232.167 198.5,234.5C 200.167,234.5 201.833,234.5 203.5,234.5C 201.735,235.461 199.735,235.795 197.5,235.5C 197.194,232.615 197.527,229.948 198.5,227.5 Z"/></g>
<g><path style="opacity:0.133" fill="#e4e2de" d="M 137.5,219.5 C 137.5,224.5 137.5,229.5 137.5,234.5C 139.833,234.5 142.167,234.5 144.5,234.5C 144.183,230.298 144.517,226.298 145.5,222.5C 145.5,226.833 145.5,231.167 145.5,235.5C 142.5,235.5 139.5,235.5 136.5,235.5C 136.179,229.974 136.512,224.64 137.5,219.5 Z"/></g>
<g><path style="opacity:0.147" fill="#e3dedd" d="M 159.5,233.5 C 160.043,233.56 160.376,233.893 160.5,234.5C 157.355,235.803 154.355,235.803 151.5,234.5C 154.385,234.806 157.052,234.473 159.5,233.5 Z"/></g>
<g><path style="opacity:0.133" fill="#f1e5ca" d="M 373.5,233.5 C 373.5,234.167 373.833,234.5 374.5,234.5C 378.833,234.5 383.167,234.5 387.5,234.5C 382.652,235.814 377.652,235.814 372.5,234.5C 372.624,233.893 372.957,233.56 373.5,233.5 Z"/></g>
</svg>
