<?xml version="1.0" encoding="UTF-8"?>
<!DOCTYPE svg PUBLIC "-//W3C//DTD SVG 1.1//EN" "http://www.w3.org/Graphics/SVG/1.1/DTD/svg11.dtd">
<svg xmlns="http://www.w3.org/2000/svg" version="1.1" width="738px" height="108px" style="shape-rendering:geometricPrecision; text-rendering:geometricPrecision; image-rendering:optimizeQuality; fill-rule:evenodd; clip-rule:evenodd" xmlns:xlink="http://www.w3.org/1999/xlink">
<g><path style="opacity:1" fill="#fef7f2" d="M -0.5,-0.5 C 11.8333,-0.5 24.1667,-0.5 36.5,-0.5C 36.1667,5.5 35.8333,11.5 35.5,17.5C 27.6484,17.1746 19.9818,17.508 12.5,18.5C 12.5,42.5 12.5,66.5 12.5,90.5C 17.6405,91.4881 22.9738,91.8214 28.5,91.5C 28.5,82.8333 28.5,74.1667 28.5,65.5C 29.5,65.5 30.5,65.5 31.5,65.5C 31.6478,79.0237 30.9812,93.0237 29.5,107.5C 19.5,107.5 9.5,107.5 -0.5,107.5C -0.5,71.5 -0.5,35.5 -0.5,-0.5 Z"/></g>
<g><path style="opacity:1" fill="#faf4f0" d="M 175.5,-0.5 C 362.833,-0.5 550.167,-0.5 737.5,-0.5C 737.5,35.5 737.5,71.5 737.5,107.5C 695.833,107.5 654.167,107.5 612.5,107.5C 612.751,104.091 612.417,100.758 611.5,97.5C 615.296,93.602 619.963,91.2686 625.5,90.5C 625.833,90.5 626.167,90.5 626.5,90.5C 640.323,91.4958 654.323,91.8291 668.5,91.5C 668.5,86.5 668.5,81.5 668.5,76.5C 670.042,77.3007 671.708,77.634 673.5,77.5C 673.182,82.0323 673.515,86.3656 674.5,90.5C 686.106,92.0687 697.773,91.5687 709.5,89C 732.63,77.9515 739.464,60.4515 730,36.5C 722.76,25.466 712.593,19.466 699.5,18.5C 691.016,17.507 682.349,17.1736 673.5,17.5C 673.5,28.5 673.5,39.5 673.5,50.5C 670.338,49.8889 667.171,49.2223 664,48.5C 661.294,50.7791 658.461,50.7791 655.5,48.5C 650.88,47.5067 646.214,47.1734 641.5,47.5C 641.5,37.5 641.5,27.5 641.5,17.5C 638.833,17.5 636.167,17.5 633.5,17.5C 630.833,17.5 628.167,17.5 625.5,17.5C 625.5,27.8333 625.5,38.1667 625.5,48.5C 624.325,48.281 623.325,48.6143 622.5,49.5C 621.92,52.3106 621.254,54.9773 620.5,57.5C 621.132,39.9338 613.465,27.4338 597.5,20C 578.51,13.493 562.843,17.993 550.5,33.5C 550.389,32.8826 550.056,32.3826 549.5,32C 543.194,30.8483 536.861,30.0149 530.5,29.5C 518.501,18.5 504.501,15 488.5,19C 483.812,21.0065 479.479,23.5065 475.5,26.5C 471.958,26.3802 468.458,26.7135 465,27.5C 461.356,26.0258 457.523,25.0258 453.5,24.5C 451.575,24.5904 450.408,25.5904 450,27.5C 448.274,26.4238 446.441,26.2571 444.5,27C 440.115,28.8634 435.782,30.6967 431.5,32.5C 431.5,29.8333 431.5,27.1667 431.5,24.5C 431.5,22.1667 431.5,19.8333 431.5,17.5C 413.659,17.1699 395.992,17.5033 378.5,18.5C 378.5,23.1667 378.5,27.8333 378.5,32.5C 384.5,32.5 390.5,32.5 396.5,32.5C 396.793,36.4367 396.46,40.27 395.5,44C 386.767,45.5178 378.767,48.6844 371.5,53.5C 371.5,50.8333 371.5,48.1667 371.5,45.5C 362.833,45.5 354.167,45.5 345.5,45.5C 345.5,41.1667 345.5,36.8333 345.5,32.5C 355.167,32.5 364.833,32.5 374.5,32.5C 374.279,29.7212 374.612,27.0545 375.5,24.5C 375.5,22.1667 375.5,19.8333 375.5,17.5C 360.324,17.1706 345.324,17.5039 330.5,18.5C 330.5,35.8333 330.5,53.1667 330.5,70.5C 328.862,71.1589 327.195,71.8256 325.5,72.5C 324.702,72.0431 324.369,71.3764 324.5,70.5C 324.5,53.1667 324.5,35.8333 324.5,18.5C 319.36,17.5119 314.026,17.1786 308.5,17.5C 308.5,35.1667 308.5,52.8333 308.5,70.5C 307.441,75.2075 304.441,77.2075 299.5,76.5C 299.5,79.1667 299.5,81.8333 299.5,84.5C 293.461,85.6764 287.461,87.1764 281.5,89C 278.403,92.3884 274.736,95.0551 270.5,97C 264.943,98.5056 259.609,100.506 254.5,103C 252.866,103.494 251.199,103.66 249.5,103.5C 249.473,105.199 248.806,106.533 247.5,107.5C 224.5,107.5 201.5,107.5 178.5,107.5C 178.5,102.167 178.5,96.8333 178.5,91.5C 175.615,91.8064 172.948,91.4731 170.5,90.5C 175.5,90.5 180.5,90.5 185.5,90.5C 185.5,82.1667 185.5,73.8333 185.5,65.5C 186.978,65.238 188.311,65.5713 189.5,66.5C 192.894,74.2882 196.561,81.9549 200.5,89.5C 206.167,90.8333 211.833,90.8333 217.5,89.5C 212.776,81.2185 208.442,72.7185 204.5,64C 216.182,57.1268 220.682,46.9601 218,33.5C 215.101,26.2684 209.934,21.4351 202.5,19C 191.839,18.5002 181.172,18.3335 170.5,18.5C 172.265,17.5386 174.265,17.2053 176.5,17.5C 176.133,11.5331 175.799,5.5331 175.5,-0.5 Z"/></g>
<g><path style="opacity:1" fill="#f9f5f3" d="M 36.5,-0.5 C 82.8333,-0.5 129.167,-0.5 175.5,-0.5C 175.799,5.5331 176.133,11.5331 176.5,17.5C 174.265,17.2053 172.265,17.5386 170.5,18.5C 170.5,42.5 170.5,66.5 170.5,90.5C 172.948,91.4731 175.615,91.8064 178.5,91.5C 178.5,96.8333 178.5,102.167 178.5,107.5C 128.833,107.5 79.1667,107.5 29.5,107.5C 30.9812,93.0237 31.6478,79.0237 31.5,65.5C 53.1148,65.7152 62.6148,55.0485 60,33.5C 57.101,26.2684 51.9343,21.4351 44.5,19C 33.8385,18.5002 23.1719,18.3335 12.5,18.5C 19.9818,17.508 27.6484,17.1746 35.5,17.5C 35.8333,11.5 36.1667,5.5 36.5,-0.5 Z"/></g>
<g><path style="opacity:1" fill="#545454" d="M 251.5,17.5 C 275.031,14.666 290.531,24.3326 298,46.5C 300.516,69.6316 290.682,84.4649 268.5,91C 245.39,94.0345 230.223,84.5345 223,62.5C 220.523,39.8273 230.023,24.8273 251.5,17.5 Z"/></g>
<g><path style="opacity:1" fill="#a4a1a0" d="M 330.5,18.5 C 345.324,17.5039 360.324,17.1706 375.5,17.5C 375.5,19.8333 375.5,22.1667 375.5,24.5C 374.539,22.7354 374.205,20.7354 374.5,18.5C 359.833,18.5 345.167,18.5 330.5,18.5 Z"/></g>
<g><path style="opacity:1" fill="#a3a09f" d="M 378.5,18.5 C 395.992,17.5033 413.659,17.1699 431.5,17.5C 431.5,19.8333 431.5,22.1667 431.5,24.5C 430.539,22.7354 430.205,20.7354 430.5,18.5C 413.167,18.5 395.833,18.5 378.5,18.5 Z"/></g>
<g><path style="opacity:1" fill="#c09108" d="M 530.5,29.5 C 533.274,32.7133 535.274,36.38 536.5,40.5C 534.492,42.0826 532.159,43.0826 529.5,43.5C 526.482,43.6646 523.482,43.498 520.5,43C 514.176,33.981 505.509,30.6477 494.5,33C 481.251,38.6647 476.418,48.498 480,62.5C 487.246,76.0251 498.079,79.8584 512.5,74C 514.792,72.7101 516.792,71.0435 518.5,69C 514.179,68.501 509.846,68.3343 505.5,68.5C 505.5,63.8333 505.5,59.1667 505.5,54.5C 516.833,54.5 528.167,54.5 539.5,54.5C 537.328,77.6728 524.661,90.0061 501.5,91.5C 480.706,90.5482 467.873,79.8815 463,59.5C 461.584,46.3406 465.751,35.3406 475.5,26.5C 479.479,23.5065 483.812,21.0065 488.5,19C 504.501,15 518.501,18.5 530.5,29.5 Z"/></g>
<g><path style="opacity:1" fill="#c09108" d="M 620.5,57.5 C 618.219,74.954 608.553,86.1206 591.5,91C 568.003,94.3428 552.503,84.8428 545,62.5C 543.007,51.9998 544.84,42.3332 550.5,33.5C 562.843,17.993 578.51,13.493 597.5,20C 613.465,27.4338 621.132,39.9338 620.5,57.5 Z"/></g>
<g><path style="opacity:1" fill="#535353" d="M 12.5,18.5 C 23.1719,18.3335 33.8385,18.5002 44.5,19C 51.9343,21.4351 57.101,26.2684 60,33.5C 62.6148,55.0485 53.1148,65.7152 31.5,65.5C 30.5,65.5 29.5,65.5 28.5,65.5C 27.5073,73.6499 27.1739,81.9832 27.5,90.5C 22.5,90.5 17.5,90.5 12.5,90.5C 12.5,66.5 12.5,42.5 12.5,18.5 Z"/></g>
<g><path style="opacity:1" fill="#535353" d="M 110.5,18.5 C 110.5,23.1667 110.5,27.8333 110.5,32.5C 100.833,32.5 91.1667,32.5 81.5,32.5C 81.5,36.8333 81.5,41.1667 81.5,45.5C 89.8333,45.5 98.1667,45.5 106.5,45.5C 106.5,50.5 106.5,55.5 106.5,60.5C 98.1667,60.5 89.8333,60.5 81.5,60.5C 81.5,65.8333 81.5,71.1667 81.5,76.5C 91.1667,76.5 100.833,76.5 110.5,76.5C 110.5,81.1667 110.5,85.8333 110.5,90.5C 95.8333,90.5 81.1667,90.5 66.5,90.5C 66.5,66.5 66.5,42.5 66.5,18.5C 81.1667,18.5 95.8333,18.5 110.5,18.5 Z"/></g>
<g><path style="opacity:1" fill="#525252" d="M 148.5,32.5 C 147.503,51.6595 147.17,70.9928 147.5,90.5C 142.5,90.5 137.5,90.5 132.5,90.5C 132.5,71.1667 132.5,51.8333 132.5,32.5C 126.167,32.5 119.833,32.5 113.5,32.5C 113.5,27.8333 113.5,23.1667 113.5,18.5C 131.167,18.5 148.833,18.5 166.5,18.5C 166.5,23.1667 166.5,27.8333 166.5,32.5C 160.5,32.5 154.5,32.5 148.5,32.5 Z"/></g>
<g><path style="opacity:1" fill="#535353" d="M 170.5,18.5 C 181.172,18.3335 191.839,18.5002 202.5,19C 209.934,21.4351 215.101,26.2684 218,33.5C 220.682,46.9601 216.182,57.1268 204.5,64C 208.442,72.7185 212.776,81.2185 217.5,89.5C 211.833,90.8333 206.167,90.8333 200.5,89.5C 196.561,81.9549 192.894,74.2882 189.5,66.5C 188.311,65.5713 186.978,65.238 185.5,65.5C 185.5,73.8333 185.5,82.1667 185.5,90.5C 180.5,90.5 175.5,90.5 170.5,90.5C 170.5,66.5 170.5,42.5 170.5,18.5 Z"/></g>
<g><path style="opacity:1" fill="#b7b4b1" d="M 324.5,18.5 C 319.5,18.5 314.5,18.5 309.5,18.5C 309.83,36.008 309.497,53.3414 308.5,70.5C 308.5,52.8333 308.5,35.1667 308.5,17.5C 314.026,17.1786 319.36,17.5119 324.5,18.5 Z"/></g>
<g><path style="opacity:1" fill="#535353" d="M 324.5,18.5 C 324.5,35.8333 324.5,53.1667 324.5,70.5C 322.626,85.032 314.293,92.032 299.5,91.5C 299.5,89.1667 299.5,86.8333 299.5,84.5C 299.5,81.8333 299.5,79.1667 299.5,76.5C 304.441,77.2075 307.441,75.2075 308.5,70.5C 309.497,53.3414 309.83,36.008 309.5,18.5C 314.5,18.5 319.5,18.5 324.5,18.5 Z"/></g>
<g><path style="opacity:1" fill="#525252" d="M 330.5,18.5 C 345.167,18.5 359.833,18.5 374.5,18.5C 374.205,20.7354 374.539,22.7354 375.5,24.5C 374.612,27.0545 374.279,29.7212 374.5,32.5C 364.833,32.5 355.167,32.5 345.5,32.5C 345.5,36.8333 345.5,41.1667 345.5,45.5C 354.167,45.5 362.833,45.5 371.5,45.5C 371.5,48.1667 371.5,50.8333 371.5,53.5C 370.539,55.2646 370.205,57.2646 370.5,59.5C 362.316,59.1743 354.316,59.5076 346.5,60.5C 345.512,65.6405 345.179,70.9738 345.5,76.5C 355.5,76.5 365.5,76.5 375.5,76.5C 375.5,79.1667 375.5,81.8333 375.5,84.5C 374.539,86.2646 374.205,88.2646 374.5,90.5C 359.833,90.5 345.167,90.5 330.5,90.5C 330.5,83.8333 330.5,77.1667 330.5,70.5C 330.5,53.1667 330.5,35.8333 330.5,18.5 Z"/></g>
<g><path style="opacity:1" fill="#525252" d="M 378.5,18.5 C 395.833,18.5 413.167,18.5 430.5,18.5C 430.205,20.7354 430.539,22.7354 431.5,24.5C 431.5,27.1667 431.5,29.8333 431.5,32.5C 425.167,32.5 418.833,32.5 412.5,32.5C 411.503,51.6595 411.17,70.9928 411.5,90.5C 406.833,90.5 402.167,90.5 397.5,90.5C 397.83,70.9928 397.497,51.6595 396.5,32.5C 390.5,32.5 384.5,32.5 378.5,32.5C 378.5,27.8333 378.5,23.1667 378.5,18.5 Z"/></g>
<g><path style="opacity:1" fill="#ddc889" d="M 633.5,17.5 C 631.393,18.4682 629.059,18.8016 626.5,18.5C 626.5,42.5 626.5,66.5 626.5,90.5C 626.167,90.5 625.833,90.5 625.5,90.5C 625.5,76.5 625.5,62.5 625.5,48.5C 625.5,38.1667 625.5,27.8333 625.5,17.5C 628.167,17.5 630.833,17.5 633.5,17.5 Z"/></g>
<g><path style="opacity:1" fill="#c09109" d="M 633.5,17.5 C 636.167,17.5 638.833,17.5 641.5,17.5C 641.5,27.5 641.5,37.5 641.5,47.5C 641.5,57.1667 641.5,66.8333 641.5,76.5C 650.5,76.5 659.5,76.5 668.5,76.5C 668.5,81.5 668.5,86.5 668.5,91.5C 654.323,91.8291 640.323,91.4958 626.5,90.5C 626.5,66.5 626.5,42.5 626.5,18.5C 629.059,18.8016 631.393,18.4682 633.5,17.5 Z"/></g>
<g><path style="opacity:1" fill="#dfc98b" d="M 699.5,18.5 C 691.167,18.5 682.833,18.5 674.5,18.5C 674.5,42.5 674.5,66.5 674.5,90.5C 673.515,86.3656 673.182,82.0323 673.5,77.5C 673.5,68.5 673.5,59.5 673.5,50.5C 673.5,39.5 673.5,28.5 673.5,17.5C 682.349,17.1736 691.016,17.507 699.5,18.5 Z"/></g>
<g><path style="opacity:1" fill="#bf9106" d="M 699.5,18.5 C 712.593,19.466 722.76,25.466 730,36.5C 739.464,60.4515 732.63,77.9515 709.5,89C 697.773,91.5687 686.106,92.0687 674.5,90.5C 674.5,66.5 674.5,42.5 674.5,18.5C 682.833,18.5 691.167,18.5 699.5,18.5 Z"/></g>
<g><path style="opacity:1" fill="#fbf4f0" d="M 253.5,32.5 C 266.929,30.2954 276.429,35.2954 282,47.5C 283.844,68.3226 274.344,77.8226 253.5,76C 240.288,70.3968 235.455,60.5635 239,46.5C 242.408,40.2566 247.242,35.5899 253.5,32.5 Z"/></g>
<g><path style="opacity:1" fill="#f4efeb" d="M 27.5,32.5 C 32.5988,32.1746 37.5988,32.6746 42.5,34C 46.4226,38.9296 46.4226,43.9296 42.5,49C 37.6278,50.3885 32.6278,50.8885 27.5,50.5C 27.5,44.5 27.5,38.5 27.5,32.5 Z"/></g>
<g><path style="opacity:1" fill="#f6efeb" d="M 185.5,32.5 C 190.599,32.1746 195.599,32.6746 200.5,34C 204.423,38.9296 204.423,43.9296 200.5,49C 195.628,50.3885 190.628,50.8885 185.5,50.5C 185.5,44.5 185.5,38.5 185.5,32.5 Z"/></g>
<g><path style="opacity:1" fill="#f5f3f1" d="M 576.5,32.5 C 598.177,32.0027 607.01,42.3361 603,63.5C 596.384,75.2897 586.551,79.123 573.5,75C 560.011,66.8577 556.845,55.6911 564,41.5C 567.299,37.1179 571.466,34.1179 576.5,32.5 Z"/></g>
<g><path style="opacity:1" fill="#c2bfbd" d="M 148.5,32.5 C 148.5,52.1667 148.5,71.8333 148.5,91.5C 142.974,91.8214 137.64,91.4881 132.5,90.5C 137.5,90.5 142.5,90.5 147.5,90.5C 147.17,70.9928 147.503,51.6595 148.5,32.5 Z"/></g>
<g><path style="opacity:1" fill="#f9f4f2" d="M 689.5,32.5 C 713.075,31.893 721.908,42.893 716,65.5C 709.493,74.4968 700.66,78.1634 689.5,76.5C 689.5,61.8333 689.5,47.1667 689.5,32.5 Z"/></g>
<g><path style="opacity:1" fill="#939291" d="M 371.5,53.5 C 371.5,55.8333 371.5,58.1667 371.5,60.5C 363.167,60.5 354.833,60.5 346.5,60.5C 354.316,59.5076 362.316,59.1743 370.5,59.5C 370.205,57.2646 370.539,55.2646 371.5,53.5 Z"/></g>
<g><path style="opacity:1" fill="#f3f2f2" d="M 641.5,47.5 C 646.214,47.1734 650.88,47.5067 655.5,48.5C 658.461,50.7791 661.294,50.7791 664,48.5C 667.171,49.2223 670.338,49.8889 673.5,50.5C 673.5,59.5 673.5,68.5 673.5,77.5C 671.708,77.634 670.042,77.3007 668.5,76.5C 659.5,76.5 650.5,76.5 641.5,76.5C 641.5,66.8333 641.5,57.1667 641.5,47.5 Z"/></g>
<g><path style="opacity:1" fill="#bdb9b5" d="M 28.5,65.5 C 28.5,74.1667 28.5,82.8333 28.5,91.5C 22.9738,91.8214 17.6405,91.4881 12.5,90.5C 17.5,90.5 22.5,90.5 27.5,90.5C 27.1739,81.9832 27.5073,73.6499 28.5,65.5 Z"/></g>
<g><path style="opacity:1" fill="#9d9b9a" d="M 110.5,18.5 C 95.8333,18.5 81.1667,18.5 66.5,18.5C 66.5,42.5 66.5,66.5 66.5,90.5C 81.1667,90.5 95.8333,90.5 110.5,90.5C 95.676,91.4961 80.676,91.8294 65.5,91.5C 65.5,66.8333 65.5,42.1667 65.5,17.5C 80.676,17.1706 95.676,17.5039 110.5,18.5 Z"/></g>
<g><path style="opacity:1" fill="#f5f4f2" d="M 475.5,26.5 C 465.751,35.3406 461.584,46.3406 463,59.5C 467.873,79.8815 480.706,90.5482 501.5,91.5C 524.661,90.0061 537.328,77.6728 539.5,54.5C 528.167,54.5 516.833,54.5 505.5,54.5C 505.5,59.1667 505.5,63.8333 505.5,68.5C 509.846,68.3343 514.179,68.501 518.5,69C 516.792,71.0435 514.792,72.7101 512.5,74C 498.079,79.8584 487.246,76.0251 480,62.5C 476.418,48.498 481.251,38.6647 494.5,33C 505.509,30.6477 514.176,33.981 520.5,43C 523.482,43.498 526.482,43.6646 529.5,43.5C 532.167,43.5 534.833,43.5 537.5,43.5C 537.737,42.209 537.404,41.209 536.5,40.5C 535.274,36.38 533.274,32.7133 530.5,29.5C 536.861,30.0149 543.194,30.8483 549.5,32C 550.056,32.3826 550.389,32.8826 550.5,33.5C 544.84,42.3332 543.007,51.9998 545,62.5C 552.503,84.8428 568.003,94.3428 591.5,91C 608.553,86.1206 618.219,74.954 620.5,57.5C 621.254,54.9773 621.92,52.3106 622.5,49.5C 623.325,48.6143 624.325,48.281 625.5,48.5C 625.5,62.5 625.5,76.5 625.5,90.5C 619.963,91.2686 615.296,93.602 611.5,97.5C 612.417,100.758 612.751,104.091 612.5,107.5C 490.833,107.5 369.167,107.5 247.5,107.5C 248.806,106.533 249.473,105.199 249.5,103.5C 251.199,103.66 252.866,103.494 254.5,103C 259.609,100.506 264.943,98.5056 270.5,97C 274.736,95.0551 278.403,92.3884 281.5,89C 287.461,87.1764 293.461,85.6764 299.5,84.5C 299.5,86.8333 299.5,89.1667 299.5,91.5C 314.293,92.032 322.626,85.032 324.5,70.5C 324.369,71.3764 324.702,72.0431 325.5,72.5C 327.195,71.8256 328.862,71.1589 330.5,70.5C 330.5,77.1667 330.5,83.8333 330.5,90.5C 345.324,91.4961 360.324,91.8294 375.5,91.5C 375.5,89.1667 375.5,86.8333 375.5,84.5C 375.5,81.8333 375.5,79.1667 375.5,76.5C 365.5,76.5 355.5,76.5 345.5,76.5C 345.179,70.9738 345.512,65.6405 346.5,60.5C 354.833,60.5 363.167,60.5 371.5,60.5C 371.5,58.1667 371.5,55.8333 371.5,53.5C 378.767,48.6844 386.767,45.5178 395.5,44C 396.46,40.27 396.793,36.4367 396.5,32.5C 397.497,51.6595 397.83,70.9928 397.5,90.5C 402.305,91.4872 407.305,91.8205 412.5,91.5C 412.5,71.8333 412.5,52.1667 412.5,32.5C 418.833,32.5 425.167,32.5 431.5,32.5C 435.782,30.6967 440.115,28.8634 444.5,27C 446.441,26.2571 448.274,26.4238 450,27.5C 450.408,25.5904 451.575,24.5904 453.5,24.5C 457.523,25.0258 461.356,26.0258 465,27.5C 468.458,26.7135 471.958,26.3802 475.5,26.5 Z"/></g>
<g><path style="opacity:1" fill="#d6bb6c" d="M 536.5,40.5 C 537.404,41.209 537.737,42.209 537.5,43.5C 534.833,43.5 532.167,43.5 529.5,43.5C 532.159,43.0826 534.492,42.0826 536.5,40.5 Z"/></g>
<g><path style="opacity:1" fill="#727271" d="M 412.5,32.5 C 412.5,52.1667 412.5,71.8333 412.5,91.5C 407.305,91.8205 402.305,91.4872 397.5,90.5C 402.167,90.5 406.833,90.5 411.5,90.5C 411.17,70.9928 411.503,51.6595 412.5,32.5 Z"/></g>
<g><path style="opacity:1" fill="#a3a2a2" d="M 375.5,84.5 C 375.5,86.8333 375.5,89.1667 375.5,91.5C 360.324,91.8294 345.324,91.4961 330.5,90.5C 345.167,90.5 359.833,90.5 374.5,90.5C 374.205,88.2646 374.539,86.2646 375.5,84.5 Z"/></g>
</svg>
