<?xml version="1.0" encoding="UTF-8"?>
<svg version="1.1" xmlns="http://www.w3.org/2000/svg" width="288" height="274">
<path d="M0 0 C95.04 0 190.08 0 288 0 C288 90.42 288 180.84 288 274 C192.96 274 97.92 274 0 274 C0 183.58 0 93.16 0 0 Z " fill="#FEFEFE" transform="translate(0,0)"/>
<path d="M0 0 C0.71800781 -0.03738281 1.43601563 -0.07476562 2.17578125 -0.11328125 C10.52792157 -0.24679681 17.28933905 3.53743896 23.36401367 9.09204102 C24.8119543 10.50752893 26.2462308 11.93710207 27.66796875 13.37890625 C28.43305252 14.13920639 29.19813629 14.89950653 29.98640442 15.68284607 C31.58472741 17.27779135 33.17685364 18.87896899 34.76293945 20.48608398 C37.20180297 22.9519614 39.66652932 25.38973328 42.13476562 27.82617188 C43.68910768 29.38381404 45.24190013 30.94300443 46.79296875 32.50390625 C47.90202827 33.59778404 47.90202827 33.59778404 49.03349304 34.71376038 C49.70201797 35.39804611 50.37054291 36.08233185 51.05932617 36.78735352 C51.65315598 37.38516129 52.24698578 37.98296906 52.85881042 38.59889221 C54 40.375 54 40.375 53.79536438 42.46714783 C52.68065735 45.1410119 51.01618744 46.68012259 48.9375 48.6875 C48.20402344 49.40550781 47.47054687 50.12351563 46.71484375 50.86328125 C44.63327374 52.78910789 42.52706334 54.63393473 40.37109375 56.47265625 C37.00223205 59.40122639 33.86818298 62.49381623 30.7578125 65.6953125 C30.29985794 66.16585556 29.84190338 66.63639862 29.37007141 67.12120056 C27.47718584 69.06793778 25.58583578 71.01555615 23.71435547 72.98291016 C15.73403978 81.35129261 7.49919554 88.38870963 -4.5625 88.6875 C-16.28916393 88.51816189 -22.91800553 83.41152614 -31 75.375 C-32.16513155 74.23543877 -33.33051084 73.09613081 -34.49609375 71.95703125 C-40.02386373 66.51880953 -45.45504595 61.05070465 -50.46875 55.12890625 C-53.15235938 52.05507816 -56.07633594 49.21868541 -59 46.375 C-55.00700286 41.35523217 -50.55919731 37.06078802 -45.80493164 32.7800293 C-42.01762888 29.33173133 -38.38432801 25.76566197 -34.80078125 22.10546875 C-33.42805054 20.70675537 -33.42805054 20.70675537 -32.02758789 19.27978516 C-30.20953221 17.41938221 -28.39975734 15.55084187 -26.59936523 13.67333984 C-21.474103 8.44008049 -16.65811368 4.46703953 -10 1.375 C-6.8350154 -0.2074923 -3.47325141 0.06575863 0 0 Z " fill="#927310" transform="translate(75,94.625)"/>
<path d="M0 0 C0.71800781 -0.03738281 1.43601563 -0.07476562 2.17578125 -0.11328125 C10.6090912 -0.24809438 17.37556911 3.56560629 23.43994141 9.24731445 C24.92337588 10.73152703 26.39352627 12.22911089 27.8515625 13.73828125 C28.63647064 14.53026413 29.42137878 15.32224701 30.23007202 16.13822937 C32.70715401 18.64305223 35.16616756 21.1647736 37.625 23.6875 C39.31263275 25.40024152 41.00142449 27.11184186 42.69140625 28.82226562 C46.80775692 32.99341604 50.9094597 37.17854316 55 41.375 C54.05748796 42.48328168 53.1137187 43.59049425 52.16943359 44.69726562 C51.6440097 45.31396118 51.11858582 45.93065674 50.57723999 46.56604004 C48.36113925 49.10771888 46.0125019 51.49449957 43.625 53.875 C42.75101562 54.7515625 41.87703125 55.628125 40.9765625 56.53125 C38.77175788 58.68423066 36.47852682 60.7036826 34.140625 62.7109375 C31.31634381 65.15806935 28.65945137 67.68813984 26.0703125 70.3828125 C25.41933594 71.05957031 24.76835937 71.73632812 24.09765625 72.43359375 C22.78235294 73.81140652 21.47502003 75.19687231 20.17578125 76.58984375 C12.9099352 84.08498672 4.78169735 88.36053554 -5.75 88.6875 C-18.67997817 88.51484451 -27.9375991 78.7930472 -36.4140625 70.09765625 C-39.04786717 67.32460209 -41.55231056 64.47672976 -44.03125 61.56640625 C-48.46654433 56.62950125 -53.27384037 52.03131491 -58 47.375 C-56.59870148 44.21532174 -54.9430075 42.05701037 -52.51928711 39.60375977 C-51.80771957 38.87943253 -51.09615204 38.15510529 -50.36302185 37.40882874 C-49.20686119 36.24932961 -49.20686119 36.24932961 -48.02734375 35.06640625 C-47.23026505 34.26267075 -46.43318634 33.45893524 -45.61195374 32.63084412 C-43.92242112 30.93118756 -42.23016315 29.23423643 -40.53540039 27.53979492 C-37.96107278 24.96111265 -35.40314033 22.36690454 -32.84570312 19.77148438 C-31.19890101 18.11881024 -29.55114426 16.46708668 -27.90234375 14.81640625 C-26.76743752 13.65994347 -26.76743752 13.65994347 -25.60960388 12.4801178 C-20.81765876 7.72836456 -16.07613446 4.31161718 -10 1.375 C-6.8350154 -0.2074923 -3.47325141 0.06575863 0 0 Z " fill="#8F7111" transform="translate(211,89.625)"/>
<path d="M0 0 C4.80780872 4.02398001 9.39072402 8.20901012 13.8515625 12.61328125 C14.4734848 13.22713181 15.0954071 13.84098236 15.73617554 14.47343445 C17.04008824 15.76361906 18.34253133 17.05529049 19.64355469 18.34838867 C20.96364655 19.65693217 22.28820041 20.96098971 23.6171875 22.26049805 C37.72890428 36.06020923 37.72890428 36.06020923 41 44 C41.433125 44.969375 41.86625 45.93875 42.3125 46.9375 C44.46739629 56.53658345 42.61673643 64.95284501 37.625 73.3125 C34.57606157 77.62509484 30.88655257 81.05661097 26.96459961 84.54711914 C20.63847219 90.21095395 14.67444312 96.23334643 8.6875 102.25 C7.89607101 103.04449554 7.89607101 103.04449554 7.08865356 103.8550415 C4.05574922 106.90003994 1.02632756 109.94846274 -2 113 C-8.1259637 107.96020008 -13.73943312 102.44673176 -19.3425293 96.84277344 C-20.92543513 95.26204825 -22.51617277 93.6895078 -24.10742188 92.1171875 C-44.90936128 71.43373374 -44.90936128 71.43373374 -45.5 57 C-44.79913841 40.39170408 -31.5496907 30.37863818 -20.54223633 19.41186523 C-18.8010673 17.6761028 -17.06537054 15.93499477 -15.33007812 14.19335938 C-14.20604998 13.06999141 -13.08171201 11.94693334 -11.95703125 10.82421875 C-11.44751419 10.31267746 -10.93799713 9.80113617 -10.41304016 9.27409363 C-7.09205159 5.97442379 -3.63317474 2.95332582 0 0 Z " fill="#917211" transform="translate(141,149)"/>
<path d="M0 0 C6.00093435 4.97360048 11.50318681 10.35357421 17 15.875 C17.86367187 16.73480469 18.72734375 17.59460938 19.6171875 18.48046875 C42.79889162 41.69740342 42.79889162 41.69740342 43.375 55.5 C42.9097225 66.66665993 36.85238765 75.72805613 28.92724609 83.23266602 C27.13563985 84.87561479 25.30527806 86.45341005 23.453125 88.02734375 C17.55518583 93.17018344 12.14957817 98.81953307 6.68359375 104.41235352 C5.29600999 105.82994803 3.90201582 107.24125905 2.5078125 108.65234375 C1.68941895 109.48757568 0.87102539 110.32280762 0.02783203 111.18334961 C-2 113 -2 113 -4 113 C-5.22998047 111.73779297 -5.22998047 111.73779297 -6.7421875 109.8671875 C-10.17134386 105.83069221 -13.84002647 102.13365669 -17.6328125 98.4453125 C-18.86328364 97.24088786 -20.09375235 96.03646073 -21.32421875 94.83203125 C-23.22507202 92.97434574 -25.12933114 91.12083192 -27.04443359 89.27783203 C-44.20278127 72.73526714 -44.20278127 72.73526714 -45.203125 60.51953125 C-45.41907546 48.04839233 -41.19283728 40.28770017 -32.66015625 31.41723633 C-31.46617744 30.21693278 -30.26675873 29.02202071 -29.0625 27.83203125 C-28.41933838 27.18932785 -27.77617676 26.54662445 -27.11352539 25.88444519 C-25.7645818 24.53849912 -24.41323256 23.19496003 -23.05957031 21.85375977 C-21.00005004 19.8125496 -18.94869853 17.76339678 -16.8984375 15.71289062 C-15.57859634 14.39796423 -14.25829924 13.08349528 -12.9375 11.76953125 C-12.02786499 10.86156548 -12.02786499 10.86156548 -11.09985352 9.93525696 C-7.54342473 6.41789388 -3.88872504 3.14701141 0 0 Z " fill="#94750F" transform="translate(146,10)"/>
</svg>
